# xmcd
#
# Track frame offsets:
#  150
#  34302
#  52509
#  56924
#  78157
#  81465
#  100001
#  116068
#  135943
#  139715
#  166328
#  177810
#  199907
#  209415
#  224737
#  239092
#  249919
#  269417
#  291049
#  301263
#
# Disc length: 4255 seconds
#
# Revision: 0
# Processed by: cddbd v1.5.1PL2 Copyright (c) Steve Scherf et al.
# Submitted via: Collectorz.com_Music_Collector 6.10
#
DISCID=24109d14
DTITLE=Bruce Springsteen - The Hitter In Syracuse [CD1)
DYEAR=1996
DGENRE=Acoustic
TTITLE0=The River
TTITLE1=Adam Raised A Cain
TTITLE2=Intro
TTITLE3=Straight Time
TTITLE4=Intro
TTITLE5=Highway 29
TTITLE6=Darkness On The Edge Of Town
TTITLE7=Johnny 99
TTITLE8=Intro
TTITLE9=The Hitter
TTITLE10=Intro
TTITLE11=Pilgrim In The Temple Of Love
TTITLE12=Intro
TTITLE13=Red Headed Woman
TTITLE14=Two Hearts
TTITLE15=Intro
TTITLE16=Brothers Under The Bridges
TTITLE17=Born In The Usa
TTITLE18=Intro
TTITLE19=Dry Lightning
EXTD=
EXTT0=
EXTT1=
EXTT2=
EXTT3=
EXTT4=
EXTT5=
EXTT6=
EXTT7=
EXTT8=
EXTT9=
EXTT10=
EXTT11=
EXTT12=
EXTT13=
EXTT14=
EXTT15=
EXTT16=
EXTT17=
EXTT18=
EXTT19=
PLAYORDER=
